<svg width="63" height="63" viewBox="0 0 63 63" fill="none" xmlns="http://www.w3.org/2000/svg">
<circle cx="31.5" cy="31.5" r="31.5" fill="#C4C4C4"/>
<path d="M29.5 5H17.5C19.1 5 19.5 6.33333 19.5 7V50C19.5 52.8 18.5 53 17 53H27.5C27 53 26.5 53 26.5 52L27 49.5C27.8 51.1 30 52.5 31.5 53C35.1 54.2 38.6667 53.5 40 53C43.5 52 45.9417 48.6165 47 46.5C49.5 41.5 50 32 47 25.5C45.8 22.3 41.6634 19.4327 39.5 19C37 18.5 35.5 18.5 32.5 19C30.1 19.4 27.8333 21.4459 27 22.4188V7.5C27 5.5 28 5 29.5 5Z" fill="#0400D8" stroke="#0400D8" stroke-width="0.1"/>
<path d="M33.5 47.5C29.5 47.5 27.5 44.5 27 43V29C28 26.5 30 25.5 32 25C34.5 24.5 36.5 25 38 26C40 27.5 40.5 29.5 41 31.0403C41.5 32.0806 42 38 41 41C39.6962 44.9116 38.5 47.5 33.5 47.5Z" fill="#C4C4C4" stroke="#0400D8" stroke-width="0.1"/>
</svg>
